# xmcd
#
# Track frame offsets:
#	150
#	18997
#	34180
#	47492
#	59015
#	71177
#	90025
#	106227
#	117175
#	130032
#	145650
#	156147
#
# Disc length: 2207 seconds
#
# Revision: 0
# Processed by: cddbd v1.5.1PL0 Copyright (c) Steve Scherf et al.
# Submitted via: audiograbber 1.83.01
#
DISCID=97089d0c
DTITLE=Nixon, Michelle - By Request
DYEAR=2004
DGENRE=Bluegrass
TTITLE0=I Miss Who I Was With You
TTITLE1=Put On Your Walking Shoes, Baby
TTITLE2=Old, Old House
TTITLE3=In My Heart
TTITLE4=How Many Roads
TTITLE5=I'll Never Grow Tired Of You
TTITLE6=Believe My Baby, I Lied
TTITLE7=Shenandoah
TTITLE8=My Name Is Judas
TTITLE9=Cold Hard Steel
TTITLE10=Your Love For Me
TTITLE11=Love Grown Cold
EXTD=
EXTT0=
EXTT1=
EXTT2=
EXTT3=
EXTT4=
EXTT5=
EXTT6=
EXTT7=
EXTT8=
EXTT9=
EXTT10=
EXTT11=
PLAYORDER=
